<svg xmlns="http://www.w3.org/2000/svg" viewBox="0 0 456.9 644.8"><defs><style>.Graphic-Style{fill:#3fcbff;}</style></defs><path class="Graphic-Style" d="M460.85,91.69c.4,1.1,3.1,11.9,6.2,24s6.5,25.3,7.6,29.4c2,8,2.4,11.2.8,7.1-1-2.5-11.4-38.7-14.4-50.1a54.83,54.83,0,0,0-2.5-7.8c-.5-.9-4-.3-13.6,2.2-14.7,4-47.9,12.3-75.9,19.1-10.4,2.5-30,7.6-43.5,11.2s-26,6.9-27.7,7.1c-2.9.5-3.9,1.6-8.8,9.9-11.9,20.2-16.3,28-17.6,30.9l-1.4,3-25.8.3-25.7.2-59.5,59.2c-32.7,32.5-59.5,59.5-59.5,59.9s27.1,27.9,60.3,60.9l60.2,60h50.4l1.7,3.2c1.3,2.5,22.1,39.5,22.8,40.5.1.1,5.3,1.5,11.6,3.1,18.1,4.7,52.7,14,62,16.6,8.7,2.5,45.8,12.5,63,17,5.2,1.3,13.9,3.7,19.4,5.1s10.2,2.3,10.6,1.8,1.9-5.5,3.4-11.3,3.9-15.5,5.6-21.5,4.6-16.9,6.5-24,4.8-18,6.5-24,4.6-16.9,6.5-24,4.4-16.4,5.5-20.5c4.7-17.4,10-38.1,10-39.5,0-.7-5.4-10.6-12-21.9s-12-21-12-21.6,5.5-10.4,12.2-21.8,12.1-21.2,12.1-21.7c0-1.2-4.8-19.2-12.7-48.5-3.1-11.3-6.6-24.1-7.7-28.5s-3.4-12.5-5-18-4.8-17.9-7.4-27.5-5.2-19.5-5.9-22-2.2-7.4-3.1-11-2.3-7-2.8-7.5S460.55,90.39,460.85,91.69Zm-61.7,62.8c-1.4,3.4-13.6,24.9-32.6,57.2-16.5,28.3-33.8,58.1-35.9,62.3-1.3,2.5-3,4.4-4.4,4.7-1.2.3-33.3.4-71.4.3-53.8-.2-69.5-.6-70.5-1.6s1.7-4.1,13.3-16c8-8.1,28.6-29.2,45.9-46.8l31.5-32.1,7-1.7c3.9-.9,14.9-3.6,24.5-6.1s20-5.2,23-5.9,17.2-4.4,31.5-8,26.9-6.9,28-7.2,4-1,6.5-1.7,4.6-1.3,4.8-1.1S400.05,152.59,399.15,154.49Zm42,29.7c1.4,4.7,6.3,22.2,10.9,39s11.1,40.3,14.4,52.3l6.1,21.7-2.1,7.8c-1.1,4.2-5.6,20.7-10.1,36.7s-8.8,32.1-9.9,36c-8.7,32-12.6,45.6-13.2,46.1-.4.4-1.1-.5-1.6-1.9a59.89,59.89,0,0,0-3.4-6.4c-1.3-2.1-11.3-19.3-22.2-38.3s-24.1-41.9-29.3-51-11.1-19.3-12.9-22.7l-3.4-6.2,5.9-10.3c3.2-5.7,9.1-15.9,13.1-22.8s16.9-29.2,28.6-49.5,22.1-38.4,23.1-40.2C437.35,170.69,437.15,170.29,441.15,184.19ZM330.75,322c1.4,2,8.7,14.5,16.3,27.7,18.1,31.4,33.1,57.3,44.4,76.9,5.1,8.7,9.5,16.4,9.7,17.1,1.1,2.7-3.4,2.3-17.4-1.4-8.1-2.2-17.4-4.6-20.7-5.4-7.3-1.8-52.4-13.4-72.6-18.7l-14.7-3.8L265,403.09c-6-6.3-21.3-22-33.9-34.9-35.3-36-44.2-45.3-45.4-47.8l-1.2-2.2h143.8Z" transform="translate(-99.55 -90.39)"/><path class="Graphic-Style" d="M360.55,569.19v14h24v-28h-24Z" transform="translate(-99.55 -90.39)"/><path class="Graphic-Style" d="M417.35,572l-10.8,1.4v24.8h-15.1l.3,9.2.3,9.3,7.3.3,7.2.3v63.4l2.9,5c3.5,6.2,5.3,7.7,11.6,10s18.9,2.3,26.9,0c5.3-1.6,5.6-1.8,5.6-4.9s-1.7-13.6-2.3-14.2a56,56,0,0,0-6,.8c-6.7,1.2-9.9.6-12.7-2.4-1.9-2.1-2-3.4-2-30v-27.8h11.5c6.3,0,11.5-.1,11.6-.3s.4-4.4.7-9.5l.7-9.2h-24.5v-14c0-10.6-.3-14-1.2-13.9C428.65,570.39,423.25,571.09,417.35,572Z" transform="translate(-99.55 -90.39)"/><path class="Graphic-Style" d="M322.05,596.19c-6.2.9-18.6,4.3-25.7,7s-7.5,2.6-8.8-1.5l-1.2-3.5h-17.8v98.1l11.8-.3,11.7-.3.5-34.5.5-34.4,8-3.4a44.89,44.89,0,0,1,14.6-3.9c6-.5,6.8-.3,8.7,1.8,2.2,2.2,2.2,2.8,2.2,38.6v36.4l11.8-.3,11.7-.3.3-40c.3-46.6.1-47.8-7.4-54.3a19.78,19.78,0,0,0-9.5-5.1,56.9,56.9,0,0,0-5.7-1C327.35,595.39,324.85,595.79,322.05,596.19Z" transform="translate(-99.55 -90.39)"/><path class="Graphic-Style" d="M172.75,640l.3,41.8,2.6,4.9a18,18,0,0,0,7.3,7.9c4.4,2.7,5.4,3,13.4,2.8,9.3-.1,22.1-3.2,32.1-7.8,3-1.3,5.7-2.2,6-1.8a15,15,0,0,1,1.6,4.2l1.1,3.7,8.7.3,8.7.3v-98.1h-23v67.7l-5.7,2.6c-16.8,7.5-25.4,8.1-28.2,2.1-.7-1.7-1.1-13.5-1.1-37.4v-35h-24.1Z" transform="translate(-99.55 -90.39)"/><path class="Graphic-Style" d="M360.55,647.19v49.1l11.8-.3,11.7-.3.3-48.8.2-48.7h-24Z" transform="translate(-99.55 -90.39)"/><path class="Graphic-Style" d="M463,602.39c4.8,15.4,12.3,39.6,14.4,46.8,1.5,4.7,5.4,16.8,8.7,27l6.1,18.5,4.2.9c2.3.6,4.2,1.3,4.2,1.8s-2.5,8.8-5.5,18.6-5.5,18.1-5.5,18.5,5.1.7,11.3.7h11.3l1.8-5.8c2.2-7.1,8.6-27.3,17.6-54.7,3.7-11.6,10.3-31.8,14.5-44.9s8.3-25.7,9.1-27.8l1.3-3.8h-24.6l-1.6,5.2c-.8,2.9-5.7,18.6-10.7,34.8s-9.5,30.3-9.7,31.2c-.9,2.9-1.9,2.1-3-2.5-1.5-5.7-20.3-66.9-20.9-67.9-.3-.4-5.9-.8-12.4-.8h-11.9Z" transform="translate(-99.55 -90.39)"/></svg>