<svg xmlns="http://www.w3.org/2000/svg" viewBox="0 0 597.86 658.31"><defs><style>.a{fill:#3fcbff;}</style></defs><path class="a" d="M317.78,71.29c-46.1,3.5-92,21.8-128.6,51.2-9.6,7.7-27.3,25.5-35.1,35.2-15.3,19.2-30.5,46.9-38.4,70-2.3,6.6-6.2,20.3-8.7,30.5-4.4,18.3-4.5,18.7-5,40.1-.6,23.9.3,35.7,4.3,53.9,11.4,52,41.5,100.7,82.3,133.3,33.9,27,73,43.5,118.6,49.9,11.4,1.6,46.4,1.6,57-.1q67.35-10.35,115.9-48.4a235.7,235.7,0,0,0,64.6-80.2c17.1-35,24.4-66.3,24.3-105-.1-37.5-7.7-69.7-24.3-103.3-21.8-44-56.7-80.1-98.5-101.8-10.4-5.5-24.6-11.5-28-11.9-1.1-.2-4.8-1.2-8.3-2.3-16.8-5.6-38.1-9.7-57.5-11.2C337.78,70.09,333.08,70.09,317.78,71.29Zm43.4,28c48.9,5.9,95.9,30.8,127.9,67.7,27.1,31.4,43.6,68.1,49.1,109.7,1.4,10.4,1.6,16.8,1.1,33-.9,28-1.2,31.6-4.2,43.5-11,43.9-36.8,83.2-73.4,111.7-22,17.1-51,30.9-78.6,37.3-35.6,8.3-79.7,6.1-110.6-5.6-10.1-3.8-36.2-17.2-46.2-23.8-24.8-16.1-47.5-39.2-62.6-63.5a204.08,204.08,0,0,1,10.1-230.4c35.4-47.2,90.8-76.9,150.9-81.1C332.18,97.29,351.38,98.09,361.18,99.29Z" transform="translate(-35.68 -70.38)"/><path class="a" d="M310.28,164.29c-3.2,1.7-9.8,4.7-14.5,6.6-25.4,10.1-49,26.6-74.4,51.6-35.6,35.2-48.9,55.6-60.1,92.5-2.6,8.5-4.6,26.2-3,26.2.5,0,2.9-3.7,5.4-8.2,17.1-31.1,45.3-62.7,63.1-70.8,5.6-2.5,14-2.6,17.6-.3,5.2,3.4,5.2,3.4,5.3,68.4l.1,60.4-3,2.7c-3.6,3.2-10.6,4.5-15.2,2.9-1.8-.6-3.4-.9-3.7-.7-.8.9,11.3,12.8,18.9,18.5,16,12.1,43.1,23.3,69.1,28.6,20,4,17,5.2,35.9-14.8,8.9-9.4,16.6-17.3,17.1-17.5s7.5,5.4,15.8,12.5,15.5,13,16.1,13.2c1.3.4,12.3-6.9,21.9-14.6,21.1-17,47.5-49.8,58.6-72.8l2.5-5-2.8,3.5c-11.9,15.3-33.4,28.9-45.9,29-3.1,0-5.1-.8-8-3.1a23.52,23.52,0,0,1-4.8-4.7c-.6-.9-1-30-1-69.2l-.1-67.5,5.9-9a425.55,425.55,0,0,1,26.1-35c10.5-13,10.5-13,4.8-10.1a123.18,123.18,0,0,1-14.8,5.7c-20.9,6.6-44.3,20.2-59.8,34.9-4.7,4.4-9.1,8-9.8,8a4.11,4.11,0,0,1-2.7-2,4.1,4.1,0,0,0-3.5-1.8c-2.7.1-16.6-1.9-19.3-2.8-1.1-.4-.1,1.3,2.7,4.2,6,6.4,8.5,10.7,10.4,17.9,1.3,5,1.5,15,1.5,64.7,0,36.2.4,58.9,1,59.3,1.8,1.1-.2,3.4-7.3,8.3-9.2,6.3-14.2,8.8-21.4,10.7-6,1.6-12.4,1.2-14.6-.8-.6-.7-3.3-2.9-5.8-4.9-8.5-6.8-8-1.6-7.7-81.2.2-38.8,0-70.6-.3-70.6s-1.2.7-1.9,1.5c-2.3,2.7-6.1,1.8-10.1-2.6-4.8-5.2-6.3-11.5-5.7-23.2s4.3-19.2,14.7-29.7c4.2-4.2,9-8.6,10.6-9.8C318.38,160.39,317.18,160.69,310.28,164.29Z" transform="translate(-35.68 -70.38)"/><path class="a" d="M54.48,588.09c-.1.6-4.5,1.1-9.5,1.2l-9.3.2v27.1c0,14.9.5,28.7,1,30.6,1.3,4.7,6.4,9.5,12,11.5,11.2,4,53.6,3.9,65.3-.1a18.64,18.64,0,0,0,11.6-12.1c1.4-4.7,1.5-59.3.2-59.3a1.54,1.54,0,0,0-1.3.9c-.1.5-4.6,1.1-9.8,1.3l-9.5.3-.3,21c-.1,13.7.1,21.9.9,23.7,1.4,3.3-.3,7.2-4.4,10.2-2.6,1.9-4.2,2.1-19.7,2.1H64.78l-3-3.5a23.23,23.23,0,0,1-4.1-7c-.5-1.9-1-13.7-1-26.3,0-13.1-.4-22.7-.9-22.7A1.54,1.54,0,0,0,54.48,588.09Z" transform="translate(-35.68 -70.38)"/><path class="a" d="M174.48,588.19c-.2.5-7,1-16,1.1l-15.8.1v71.8h21v-27.5c0-15.1.3-27.5.8-27.5s2.8,2.9,5.4,6.3,8.4,11,13,16.8l16.6,21.3,8.3,10.6L224,661l16.2-.3.3-36.8c.1-20.2-.1-36.7-.6-36.7a3.76,3.76,0,0,0-1.8.9c-.5.6-4.9,1.1-9.7,1.2l-8.8.2.2,27.1c.1,15.2-.2,26.9-.7,26.6s-2-2.1-3.4-4.1c-4.8-7-39.5-51.8-40.2-51.8C175.18,587.19,174.68,587.59,174.48,588.19Z" transform="translate(-35.68 -70.38)"/><path class="a" d="M436.48,588.19c-.2.6-14.5,1-38.5,1l-38.3.1-.2,33.9c-.1,18.7-.2,34.8-.2,35.7-.1,1.7,2.5,1.8,40.4,1.8h40.5l.3-6.9c.4-8.8-.2-10.5-2.6-8.2-1.6,1.4-5.1,1.6-27.3,1.6-14,0-26.4-.3-27.6-.6-2.1-.6-2.3-1.2-2.3-8v-7.4h55v-7.5c0-4.3-.4-7.5-1-7.5a1.08,1.08,0,0,0-1,1c0,.7-9,.9-26.2.8l-26.3-.3-.3-7.3-.3-7.2h58.1v-8c0-4.4-.4-8-.9-8A1.48,1.48,0,0,0,436.48,588.19Z" transform="translate(-35.68 -70.38)"/><path class="a" d="M511.28,588.09c-.5.7-5.1,1.1-12.5,1.1H487l-12.3,22.7c-23.8,44-25,46.2-27,46.8-4.9,1.5-1.2,2.5,9.5,2.5h11.5l3.2-6.5,3.2-6.5h47.5l3.3,6.2,3.3,6.3,11.8.3c6.4.1,11.7.1,11.7-.2,0-.7-39-72-39.9-72.9A.89.89,0,0,0,511.28,588.09Zm-4.5,29.1c3.9,7.7,7.5,14,8,14,1.5,0,1,2.8-.7,3.4-.9.3-7.6.6-14.9.6-11.9,0-13.5-.2-14.4-1.8-.7-1.4.7-5,6.2-16,4-7.8,7.5-14.2,7.9-14.2S502.78,609.49,506.78,617.19Z" transform="translate(-35.68 -70.38)"/><path class="a" d="M581.18,588.09c-.6.6-5.2,1.1-10.2,1.2l-9.3.2v71.7l35.8-.2,35.7-.3.3-8.3c.3-7.5-.5-10.1-2.3-7.2-.4.6-9.5,1-24.1,1h-23.4v-29.5c0-16.2-.4-29.5-.8-29.5A3.15,3.15,0,0,0,581.18,588.09Z" transform="translate(-35.68 -70.38)"/><path class="a" d="M257.38,589.89c-1.6.4-1.7,2.8-1.5,35.6l.3,35.2,10.8.3,10.7.3v-21.1h15.8c26.1.1,28.4,1.2,29,13.5l.4,7.6,10.7-.3,10.6-.3-.2-10.4c-.1-8.6-.5-10.9-2.1-13s-2.7-2.5-5-2.3-3.1-.2-3.5-1.7.3-2.4,3.1-3.9c5.6-2.9,7.6-7.9,7.6-18.7.1-13.9-2.8-19.6-10.2-20.3C327.88,589.79,259.38,589.29,257.38,589.89Zm60.6,14.2c2.9,1.1,4.5,5.2,4.9,13,.3,4.7,0,5.5-2.3,7.3s-4.8,2-21.2,2.5c-14.3.5-19,.3-20.2-.7s-1.5-3.6-1.5-12.1v-10.9h18.9C307,603.19,316.68,603.59,318,604.09Z" transform="translate(-35.68 -70.38)"/><path class="a" d="M219.68,686.69c-1.1,1.3-4.7,1.5-22.2,1.5-11.6-.1-21.2,0-21.4.2s-.4,9.1-.4,19.8l-.2,19.5,23.6.3,23.6.2v-4.5c0-4.2-1.1-5.8-2.5-3.5-.4.6-6.8,1-16,1-16.9,0-16.5.1-16.5-6.6v-3.4h32v-4.7c0-4.4-.1-4.5-1.8-3-1.5,1.4-4.2,1.7-15,1.7-14.5,0-15.2-.3-15.2-6.9v-3.1h34v-5C221.68,684.69,221.48,684.49,219.68,686.69Z" transform="translate(-35.68 -70.38)"/><path class="a" d="M284.68,686.69c-.8.9-3,1.5-5.6,1.5h-4.4V701c0,8.2.4,13.2,1.1,13.9,1.3,1.3.5,4.3-1.1,4.3-.6,0-1.4-1-1.9-2.3s-5-7.5-10-14-9.8-12.8-10.7-14.2c-1.1-1.7-2.2-2.4-3.3-2-2.7,1.2-4.4,1.3-11.8,1.4l-7.3.1v40h12.9l.3-15.7.3-15.7,12.3,15.7,12.3,15.7h19.9v-20.9c0-11.6-.4-21.2-.9-21.5S285.38,685.89,284.68,686.69Z" transform="translate(-35.68 -70.38)"/><path class="a" d="M368.58,686.79a4.45,4.45,0,0,1-3.3,1.3c-1.2,0-3.1-.1-4.3,0l-2.3.1v40h13v-20.9c0-11.6-.4-21.2-.9-21.5S369.38,685.89,368.58,686.79Z" transform="translate(-35.68 -70.38)"/><path class="a" d="M435.68,686.69c-.8.9-3,1.5-5.6,1.5h-4.4v13.4c0,7.5.4,13.7,1,14.1,1.1.7.2,3.5-1.1,3.5-.5,0-1.3-.8-1.6-1.8-.9-2.3-23.2-31.2-24.2-31.2a2.57,2.57,0,0,0-1.5.7c-1,1-1.1,1-10.1,1.2l-7.5.1v40h12v-15.5c0-8.5.3-15.5.8-15.5s6.1,7,12.7,15.5l12,15.5h19.5v-21.5c0-11.8-.2-21.5-.4-21.5A6,6,0,0,0,435.68,686.69Z" transform="translate(-35.68 -70.38)"/><path class="a" d="M491.88,686.39c-.9.9-7.5,1.4-23,1.8l-21.7.5-.1,19.7-.1,19.8h47.7v-4.5c0-4.2-1.1-5.8-2.5-3.5-.4.6-6.8,1-16,1-16.9,0-16.5.1-16.5-6.6v-3.4h32v-4.7c0-4.4-.1-4.5-1.8-3-1.5,1.4-4.2,1.7-14.9,1.7-14.7,0-15.6-.4-15.1-6.5l.3-3.7,16.8.1,16.7.2v-5.1C493.68,684.69,493.68,684.59,491.88,686.39Z" transform="translate(-35.68 -70.38)"/><path class="a" d="M307.28,688.29c-4.8,1.2-6.9,2.9-9.6,8.1-2.9,5.6-2.9,20.8,0,25.6,3.5,5.7,7.3,6.7,26,6.7,24,0,26.8-1.9,26.9-17.8.1-6.5-.4-7.7-2.4-5.8-.6.6-6.7,1.1-13.7,1.2l-12.8.2v5.7h8c7,0,8.1.2,9,2,1.4,2.6.5,5.7-1.8,6.4-4.3,1.2-12.8,1.7-18.1,1.1-4.9-.6-6.2-1.1-8.1-3.7-2.7-3.6-3.6-11.7-2.1-17.5,1-3.7,1.6-4.4,4.9-5.3,4.1-1.1,16.3-1.2,20.2-.1a6.32,6.32,0,0,1,3.5,2.9c.8,1.9,1.7,2.2,6.7,2.2h5.8v-3.6c0-3.4-1.4-7.3-3.1-8.4C345.18,687.19,311.28,687.29,307.28,688.29Z" transform="translate(-35.68 -70.38)"/></svg>